<svg xmlns="http://www.w3.org/2000/svg" width="259.86" height="35" viewBox="0 0 259.86 35"><rect class="svg__rect" x="0" y="0" width="110.55" height="35" fill="#31C4F3"/><rect class="svg__rect" x="108.55" y="0" width="151.31" height="35" fill="#389AD5"/><path class="svg__text" d="M13.78 19.42L13.78 19.42L15.27 19.42Q15.27 20.15 15.75 20.55Q16.23 20.95 17.12 20.95L17.12 20.95Q17.90 20.95 18.29 20.63Q18.68 20.32 18.68 19.80L18.68 19.80Q18.68 19.24 18.28 18.94Q17.89 18.63 16.85 18.32Q15.82 18.01 15.21 17.63L15.21 17.63Q14.05 16.90 14.05 15.72L14.05 15.72Q14.05 14.69 14.89 14.02Q15.73 13.35 17.07 13.35L17.07 13.35Q17.96 13.35 18.66 13.68Q19.36 14.01 19.75 14.61Q20.15 15.22 20.15 15.96L20.15 15.96L18.68 15.96Q18.68 15.29 18.26 14.91Q17.84 14.54 17.06 14.54L17.06 14.54Q16.33 14.54 15.93 14.85Q15.53 15.16 15.53 15.71L15.53 15.71Q15.53 16.18 15.96 16.50Q16.40 16.81 17.39 17.10Q18.39 17.40 18.99 17.78Q19.60 18.16 19.88 18.65Q20.16 19.13 20.16 19.79L20.16 19.79Q20.16 20.86 19.34 21.49Q18.52 22.12 17.12 22.12L17.12 22.12Q16.20 22.12 15.42 21.77Q14.64 21.43 14.21 20.83Q13.78 20.22 13.78 19.42ZM26.13 14.66L23.49 14.66L23.49 13.47L30.26 13.47L30.26 14.66L27.60 14.66L27.60 22L26.13 22L26.13 14.66ZM33.75 18.00L33.75 18.00L33.75 17.52Q33.75 16.28 34.19 15.32Q34.63 14.37 35.44 13.86Q36.24 13.35 37.29 13.35Q38.33 13.35 39.13 13.85Q39.94 14.35 40.38 15.29Q40.82 16.23 40.82 17.48L40.82 17.48L40.82 17.96Q40.82 19.21 40.39 20.16Q39.96 21.10 39.15 21.61Q38.35 22.12 37.30 22.12L37.30 22.12Q36.26 22.12 35.45 21.61Q34.64 21.10 34.19 20.17Q33.75 19.23 33.75 18.00ZM35.23 17.46L35.23 17.96Q35.23 19.36 35.78 20.13Q36.32 20.90 37.30 20.90L37.30 20.90Q38.28 20.90 38.81 20.15Q39.34 19.40 39.34 17.96L39.34 17.96L39.34 17.51Q39.34 16.09 38.81 15.34Q38.27 14.58 37.29 14.58L37.29 14.58Q36.32 14.58 35.78 15.33Q35.24 16.09 35.23 17.46L35.23 17.46ZM50.64 22L45.29 22L45.29 13.47L46.77 13.47L46.77 20.82L50.64 20.82L50.64 22ZM60.35 22L54.77 22L54.77 13.47L60.31 13.47L60.31 14.66L56.25 14.66L56.25 17.02L59.76 17.02L59.76 18.19L56.25 18.19L56.25 20.82L60.35 20.82L60.35 22ZM71.30 22L69.76 22L72.98 13.47L74.31 13.47L77.54 22L75.99 22L75.30 20.01L71.99 20.01L71.30 22ZM73.64 15.28L72.41 18.82L74.88 18.82L73.64 15.28ZM86.85 22L81.49 22L81.49 13.47L82.98 13.47L82.98 20.82L86.85 20.82L86.85 22ZM96.33 22L90.97 22L90.97 13.47L92.46 13.47L92.46 20.82L96.33 20.82L96.33 22Z" fill="#FFFFFF"/><path class="svg__text" d="M125.12 22L122.74 22L122.74 13.60L126.58 13.60Q127.72 13.60 128.56 13.98Q129.40 14.35 129.86 15.06Q130.31 15.76 130.31 16.71L130.31 16.71Q130.31 17.62 129.89 18.30Q129.46 18.98 128.67 19.36L128.67 19.36L130.48 22L127.94 22L126.41 19.77L125.12 19.77L125.12 22ZM125.12 15.47L125.12 17.93L126.44 17.93Q127.17 17.93 127.54 17.61Q127.91 17.29 127.91 16.71L127.91 16.71Q127.91 16.12 127.54 15.79Q127.17 15.47 126.44 15.47L126.44 15.47L125.12 15.47ZM141.85 22L135.10 22L135.10 13.60L141.69 13.60L141.69 15.44L137.46 15.44L137.46 16.85L141.19 16.85L141.19 18.63L137.46 18.63L137.46 20.17L141.85 20.17L141.85 22ZM146.22 17.80L146.22 17.80Q146.22 16.54 146.82 15.54Q147.42 14.55 148.49 13.99Q149.56 13.43 150.90 13.43L150.90 13.43Q152.08 13.43 153.01 13.83Q153.95 14.22 154.57 14.97L154.57 14.97L153.06 16.33Q152.22 15.40 151.04 15.40L151.04 15.40Q151.03 15.40 151.02 15.40L151.02 15.40Q149.94 15.40 149.28 16.06Q148.62 16.71 148.62 17.80L148.62 17.80Q148.62 18.50 148.92 19.04Q149.22 19.59 149.76 19.89Q150.30 20.20 151.00 20.20L151.00 20.20Q151.68 20.20 152.28 19.93L152.28 19.93L152.28 17.62L154.38 17.62L154.38 21.10Q153.66 21.61 152.72 21.89Q151.79 22.17 150.85 22.17L150.85 22.17Q149.53 22.17 148.48 21.61Q147.42 21.05 146.82 20.05Q146.22 19.06 146.22 17.80ZM161.75 22L159.37 22L159.37 13.60L163.21 13.60Q164.36 13.60 165.19 13.98Q166.03 14.35 166.49 15.06Q166.95 15.76 166.95 16.71L166.95 16.71Q166.95 17.62 166.52 18.30Q166.09 18.98 165.30 19.36L165.30 19.36L167.11 22L164.57 22L163.04 19.77L161.75 19.77L161.75 22ZM161.75 15.47L161.75 17.93L163.07 17.93Q163.80 17.93 164.17 17.61Q164.54 17.29 164.54 16.71L164.54 16.71Q164.54 16.12 164.17 15.79Q163.80 15.47 163.07 15.47L163.07 15.47L161.75 15.47ZM178.48 22L171.73 22L171.73 13.60L178.33 13.60L178.33 15.44L174.09 15.44L174.09 16.85L177.82 16.85L177.82 18.63L174.09 18.63L174.09 20.17L178.48 20.17L178.48 22ZM185.08 15.48L182.49 15.48L182.49 13.60L190.02 13.60L190.02 15.48L187.45 15.48L187.45 22L185.08 22L185.08 15.48ZM203.69 22L201.36 22L201.36 13.60L203.32 13.60L207.03 18.07L207.03 13.60L209.35 13.60L209.35 22L207.40 22L203.69 17.52L203.69 22ZM214.09 17.80L214.09 17.80Q214.09 16.55 214.69 15.55Q215.29 14.56 216.36 14.00Q217.42 13.43 218.75 13.43L218.75 13.43Q220.08 13.43 221.14 14.00Q222.21 14.56 222.81 15.55Q223.42 16.55 223.42 17.80L223.42 17.80Q223.42 19.05 222.81 20.04Q222.21 21.04 221.15 21.60Q220.09 22.17 218.75 22.17L218.75 22.17Q217.42 22.17 216.36 21.60Q215.29 21.04 214.69 20.04Q214.09 19.05 214.09 17.80ZM216.48 17.80L216.48 17.80Q216.48 18.51 216.78 19.05Q217.09 19.60 217.60 19.90Q218.12 20.20 218.75 20.20L218.75 20.20Q219.39 20.20 219.90 19.90Q220.42 19.60 220.72 19.05Q221.02 18.51 221.02 17.80L221.02 17.80Q221.02 17.09 220.72 16.54Q220.42 16 219.90 15.70Q219.39 15.40 218.75 15.40L218.75 15.40Q218.11 15.40 217.60 15.70Q217.09 16 216.78 16.54Q216.48 17.09 216.48 17.80ZM230.48 22L228.15 22L228.15 13.60L230.11 13.60L233.81 18.07L233.81 13.60L236.14 13.60L236.14 22L234.19 22L230.48 17.52L230.48 22ZM248.05 22L241.30 22L241.30 13.60L247.89 13.60L247.89 15.44L243.66 15.44L243.66 16.85L247.39 16.85L247.39 18.63L243.66 18.63L243.66 20.17L248.05 20.17L248.05 22Z" fill="#FFFFFF" x="121.55"/></svg>